<?xml version="1.0" standalone="no"?>
<!DOCTYPE svg PUBLIC "-//W3C//DTD SVG 20010904//EN"
 "http://www.w3.org/TR/2001/REC-SVG-20010904/DTD/svg10.dtd">
<svg version="1.0" xmlns="http://www.w3.org/2000/svg"
 width="370.000000pt" height="336.000000pt" viewBox="0 0 370.000000 336.000000"
 preserveAspectRatio="xMidYMid meet">

<g transform="translate(0.000000,336.000000) scale(0.100000,-0.100000)"
fill="#000000" stroke="none">
<path d="M1655 3025 c-360 -56 -684 -259 -900 -560 -310 -434 -336 -1026 -66
-1480 144 -242 333 -418 578 -539 268 -133 564 -170 879 -111 455 85 855 441
1008 896 28 84 51 203 61 324 10 109 -2 90 -20 -31 -71 -469 -378 -869 -807
-1050 -210 -89 -509 -122 -724 -81 -178 35 -396 124 -517 213 l-48 35 48 40
c27 23 200 189 386 371 185 181 337 323 337 316 0 -8 -4 -18 -9 -24 -22 -23
-51 -129 -51 -185 0 -74 17 -115 63 -156 70 -62 167 -68 256 -17 101 58 377
367 437 489 53 107 65 234 30 325 -4 10 17 33 65 70 146 113 267 297 299 453
6 31 15 57 19 57 9 0 91 -142 91 -157 0 -15 -57 -112 -104 -178 -43 -61 -184
-204 -231 -237 l-35 -23 0 -91 c0 -189 -54 -289 -303 -559 -126 -137 -199
-198 -274 -231 -50 -23 -68 -26 -133 -22 -66 4 -83 9 -132 41 -50 32 -118 105
-118 128 0 4 -4 19 -10 34 l-10 25 -56 -57 c-62 -63 -296 -321 -384 -423 -111
-129 34 -4 302 258 l106 105 61 -65 c72 -77 135 -109 231 -116 138 -9 243 41
396 193 274 272 384 460 384 661 l0 86 50 45 c92 83 228 288 252 381 10 37 25
25 48 -35 43 -111 43 -105 -8 -175 -25 -35 -90 -107 -144 -160 -82 -81 -98
-102 -98 -128 0 -138 -84 -332 -209 -481 -113 -135 -274 -303 -343 -355 -194
-150 -402 -158 -579 -22 l-47 36 -100 -111 c-143 -161 -211 -241 -206 -246 4
-4 120 97 236 208 l78 74 23 -21 c34 -31 136 -79 195 -91 153 -32 317 12 462
124 99 76 331 335 411 458 73 113 129 285 129 400 0 32 7 48 27 67 55 52 125
144 165 217 36 67 43 74 54 58 11 -14 28 -97 50 -244 3 -18 8 -31 11 -28 3 3
0 54 -7 114 -31 279 -125 505 -301 717 -165 200 -372 341 -619 420 -190 62
-442 82 -635 51z m375 -67 c0 -7 -16 -24 -36 -37 -19 -13 -46 -37 -59 -53 -20
-24 -42 -33 -107 -49 -101 -24 -277 -109 -372 -181 -280 -211 -425 -517 -361
-762 17 -66 23 -53 -70 -161 -175 -201 -361 -463 -342 -481 2 -3 22 17 43 43
85 106 224 265 342 390 l124 132 -19 53 c-28 83 -24 222 10 317 94 259 386
524 672 610 63 19 75 27 113 74 23 30 55 66 71 81 l30 29 68 -13 c37 -7 84
-19 103 -27 l35 -15 -50 -17 c-28 -9 -67 -27 -86 -39 -32 -19 -108 -91 -141
-133 -7 -9 -43 -21 -81 -28 -242 -42 -521 -251 -631 -471 -66 -132 -74 -276
-22 -379 l28 -54 -44 -46 c-117 -123 -288 -331 -362 -439 -54 -79 -131 -220
-124 -227 2 -2 38 42 80 98 104 139 211 262 392 452 l153 160 -33 48 c-44 64
-58 117 -50 196 23 253 381 584 668 618 43 5 50 10 73 48 52 90 202 205 266
205 62 0 334 -157 438 -252 48 -44 51 -58 14 -58 -16 -1 -39 -7 -53 -15 -14
-8 -28 -14 -31 -15 -4 0 -19 25 -33 55 -114 232 -420 231 -545 -2 l-26 -48
-75 -6 c-94 -7 -137 -20 -225 -65 -139 -71 -271 -191 -339 -307 -93 -157 -73
-308 48 -370 l28 -15 -117 -123 c-233 -244 -442 -519 -526 -691 -18 -38 -36
-68 -40 -68 -7 0 -55 72 -80 121 -8 15 -24 44 -36 66 -34 62 -91 240 -109 343
-22 122 -22 326 -1 446 75 419 345 771 732 955 86 41 218 83 330 104 95 18
365 20 365 3z m473 -256 c58 -31 102 -84 132 -158 l22 -54 24 26 c30 33 91 64
123 64 18 0 40 -20 91 -82 62 -76 66 -84 60 -117 -29 -157 -190 -374 -365
-491 -36 -24 -67 -44 -69 -46 -1 -1 5 -26 14 -55 13 -37 16 -72 13 -128 -6
-108 -47 -181 -197 -352 -191 -218 -282 -288 -358 -276 -50 8 -82 33 -100 75
-29 69 -1 145 139 386 38 65 67 120 64 123 -2 2 -49 -18 -103 -46 -95 -47
-104 -55 -221 -183 -67 -73 -188 -203 -268 -288 -80 -85 -205 -221 -277 -302
-72 -82 -135 -148 -140 -148 -4 0 -31 21 -58 47 l-51 47 64 61 c64 62 650 663
747 767 42 46 70 64 145 97 163 72 262 86 307 45 38 -34 28 -62 -80 -232 -122
-191 -189 -342 -153 -342 46 0 337 313 393 422 30 58 36 137 15 193 -38 97
-160 164 -274 150 -30 -4 -61 -9 -69 -12 -26 -10 -12 19 32 62 24 25 52 45 60
45 9 0 34 -15 57 -32 38 -31 45 -33 122 -33 111 0 155 23 276 144 78 78 104
112 138 181 45 91 64 170 42 170 -8 0 -61 -48 -119 -108 -154 -156 -300 -249
-349 -223 -10 6 -29 38 -42 73 -33 91 -70 139 -132 173 -44 24 -65 29 -124 30
-65 0 -79 -4 -165 -47 -112 -55 -212 -144 -264 -232 -35 -60 -45 -106 -23
-106 6 0 48 27 94 60 163 119 313 182 380 160 36 -12 59 -52 45 -78 -5 -9
-130 -137 -278 -285 -274 -274 -456 -466 -583 -617 -89 -107 -224 -305 -262
-387 -17 -35 -32 -63 -34 -63 -5 0 -54 54 -86 95 l-19 24 62 93 c136 202 273
361 568 660 l224 228 -79 -3 c-94 -2 -127 13 -151 71 -49 118 108 346 323 468
99 55 168 76 261 76 l82 0 16 47 c31 94 96 158 188 186 54 17 109 9 170 -23z"/>
<path d="M2312 2585 c-42 -36 -62 -84 -62 -152 1 -182 192 -233 256 -68 57
149 -86 311 -194 220z"/>
</g>
</svg>
